<svg width="33" height="33" viewBox="0 0 33 33" fill="none" xmlns="http://www.w3.org/2000/svg">
<path d="M16.6693 17.7427C16.4942 17.7427 16.3208 17.7082 16.159 17.6413C15.9972 17.5743 15.8502 17.4761 15.7264 17.3522C15.6026 17.2284 15.5044 17.0814 15.4374 16.9196C15.3704 16.7578 15.336 16.5844 15.336 16.4093V12.4093C15.336 12.0557 15.4765 11.7166 15.7265 11.4665C15.9766 11.2165 16.3157 11.076 16.6693 11.076C17.023 11.076 17.3621 11.2165 17.6121 11.4665C17.8622 11.7166 18.0027 12.0557 18.0027 12.4093V16.4093C18.0027 16.5844 17.9683 16.7578 17.9013 16.9196C17.8343 17.0814 17.7361 17.2284 17.6122 17.3522C17.4884 17.4761 17.3414 17.5743 17.1796 17.6413C17.0178 17.7082 16.8444 17.7427 16.6693 17.7427ZM16.6693 21.7427C16.4938 21.7444 16.3196 21.711 16.1571 21.6446C15.9945 21.5782 15.8469 21.4801 15.7227 21.3559C15.5986 21.2318 15.5004 21.0841 15.434 20.9216C15.3676 20.759 15.3343 20.5849 15.336 20.4093C15.3409 20.0563 15.479 19.7182 15.7227 19.4627C15.8499 19.342 15.9991 19.247 16.1621 19.1827C16.4051 19.0808 16.6727 19.053 16.9313 19.1029C17.19 19.1527 17.4282 19.2779 17.6159 19.4627C17.8593 19.7183 17.9974 20.0563 18.0027 20.4093C18.0044 20.5849 17.9711 20.759 17.9047 20.9216C17.8382 21.0841 17.7401 21.2318 17.6159 21.3559C17.4918 21.4801 17.3441 21.5782 17.1816 21.6446C17.0191 21.711 16.8449 21.7444 16.6693 21.7427Z" fill="#21A366"/>
<path d="M7.23595 7.15088V6.91218V4.40932C7.23595 4.08222 7.10601 3.76852 6.87471 3.53722C6.64342 3.30593 6.32972 3.17599 6.00262 3.17599C5.67552 3.17599 5.36181 3.30593 5.13052 3.53722C4.89922 3.76852 4.76928 4.08222 4.76928 4.40932V10.4093V10.4093C4.76924 10.5713 4.80111 10.7317 4.86308 10.8814C4.92504 11.031 5.01588 11.167 5.13042 11.2815C5.24495 11.3961 5.38092 11.4869 5.53057 11.5489C5.68022 11.6108 5.84062 11.6427 6.00259 11.6427H6.00262H12.0026C12.3297 11.6427 12.6434 11.5127 12.8747 11.2814C13.106 11.0501 13.2359 10.7364 13.2359 10.4093C13.2359 10.0822 13.106 9.76852 12.8747 9.53722C12.6434 9.30593 12.3297 9.17599 12.0026 9.17599H8.96054H8.72849L8.88785 9.00732C10.3661 7.44262 12.2803 6.35817 14.3824 5.89463C16.4844 5.43109 18.6772 5.60983 20.6764 6.40769C22.6756 7.20554 24.389 8.58569 25.5943 10.3691C26.7996 12.1526 27.4412 14.257 27.436 16.4096M7.23595 7.15088L27.436 16.4096M7.23595 7.15088L7.40609 6.98345C9.87715 4.5518 13.2025 3.18498 16.6694 3.17599C20.1778 3.18005 23.5414 4.57557 26.0222 7.05641C28.5031 9.53729 29.8986 12.9009 29.9026 16.4094M7.23595 7.15088L29.9026 16.4094M27.436 16.4096C27.436 16.7366 27.5659 17.0502 27.7972 17.2814C28.0285 17.5127 28.3422 17.6427 28.6693 17.6427C28.9964 17.6427 29.3101 17.5127 29.5414 17.2814C29.7727 17.0502 29.9026 16.7365 29.9026 16.4094M27.436 16.4096L29.9026 16.4094M5.90262 16.4092C5.89737 18.5617 6.53899 20.6661 7.74427 22.4495C8.94956 24.233 10.6629 25.6131 12.6621 26.411C14.6614 27.2088 16.8542 27.3876 18.9562 26.924C21.0582 26.4605 22.9725 25.376 24.4507 23.8113L24.6101 23.6427H24.378H21.3359C21.0089 23.6427 20.6951 23.5127 20.4639 23.2814C20.2326 23.0501 20.1026 22.7364 20.1026 22.4093C20.1026 22.0822 20.2326 21.7685 20.4639 21.5372C20.6951 21.3059 21.0089 21.176 21.3359 21.176H27.336C27.4979 21.1759 27.6583 21.2078 27.808 21.2698C27.9576 21.3317 28.0936 21.4226 28.2082 21.5371C28.3227 21.6517 28.4135 21.7876 28.4755 21.9373C28.5375 22.0869 28.5693 22.2473 28.5693 22.4093V28.4093C28.5693 28.7364 28.4393 29.0501 28.208 29.2814C27.9768 29.5127 27.6631 29.6427 27.336 29.6427C27.0089 29.6427 26.6951 29.5127 26.4639 29.2814C26.2326 29.0501 26.1026 28.7364 26.1026 28.4093V25.9065V25.6674L25.9324 25.8353C24.076 27.6666 21.7194 28.9077 19.1591 29.4026C16.5989 29.8974 13.9494 29.6237 11.5444 28.616C9.13934 27.6083 7.08616 25.9116 5.64331 23.7395C4.20046 21.5675 3.43245 19.0171 3.43595 16.4095V16.4093C3.43595 16.0822 3.56589 15.7685 3.79718 15.5372C4.02848 15.3059 4.34218 15.176 4.66928 15.176C4.99638 15.176 5.31009 15.3059 5.54138 15.5372C5.77264 15.7685 5.90258 16.0821 5.90262 16.4092ZM5.90262 16.4092C5.90262 16.4091 5.90262 16.4091 5.90262 16.4091L6.00262 16.4093H5.90262C5.90262 16.4093 5.90262 16.4092 5.90262 16.4092Z" fill="#21A366" stroke="#D7EEDD" stroke-width="0.2"/>
</svg>
