<svg width="21" height="20" viewBox="0 0 21 20" fill="none" xmlns="http://www.w3.org/2000/svg">
<path fill-rule="evenodd" clip-rule="evenodd" d="M13.9786 4C13.9786 3.72386 13.7548 3.5 13.4786 3.5C13.2025 3.5 12.9786 3.72385 12.9786 4L12.9786 9.79289C12.9544 9.73991 12.9206 9.69027 12.877 9.64668L7.87699 4.64668C7.68173 4.45142 7.36515 4.45142 7.16988 4.64668C6.97462 4.84195 6.97462 5.15853 7.16988 5.35379L11.8163 10.0002L7.16988 14.6467C6.97462 14.8419 6.97462 15.1585 7.16988 15.3538C7.36515 15.5491 7.68173 15.5491 7.87699 15.3538L12.877 10.3538C12.9206 10.3102 12.9544 10.2606 12.9786 10.2076L12.9785 16C12.9785 16.2761 13.2024 16.5 13.4785 16.5C13.7547 16.5 13.9785 16.2761 13.9785 16L13.9786 4Z" fill="black"/>
</svg>
