<svg width="12" height="10" viewBox="0 0 12 10" fill="none" xmlns="http://www.w3.org/2000/svg">
<path fill-rule="evenodd" clip-rule="evenodd" d="M6.08563 8.53147C6.34438 8.85491 6.29194 9.32688 5.9685 9.58563C5.64505 9.84439 5.17308 9.79195 4.91433 9.4685L0.914348 5.46852C0.695217 5.19461 0.695217 4.8054 0.914348 4.53149L4.91433 0.531505C5.17308 0.20806 5.64505 0.155619 5.9685 0.414375C6.29194 0.673131 6.34438 1.1451 6.08563 1.46854L2.46046 5L6.08563 8.53147ZM11.0856 8.53147C11.3444 8.85492 11.2919 9.32689 10.9685 9.58564C10.645 9.8444 10.1731 9.79196 9.91433 9.46851L5.91435 5.46853C5.69522 5.19462 5.69522 4.80541 5.91435 4.53149L9.91433 0.531514C10.1731 0.208069 10.6451 0.155628 10.9685 0.414384C11.2919 0.673139 11.3444 1.14511 11.0856 1.46855L7.46046 5.00001L11.0856 8.53147Z" fill="black" fill-opacity="0.6"/>
</svg>
