<svg width="21" height="20" viewBox="0 0 21 20" fill="none" xmlns="http://www.w3.org/2000/svg">
<path fill-rule="evenodd" clip-rule="evenodd" d="M7.02138 16C7.02138 16.2761 7.24524 16.5 7.52138 16.5C7.79752 16.5 8.02138 16.2761 8.02138 16L8.02143 10.2071C8.04556 10.2601 8.07942 10.3097 8.12301 10.3533L13.123 15.3533C13.3183 15.5486 13.6349 15.5486 13.8301 15.3533C14.0254 15.1581 14.0254 14.8415 13.8301 14.6462L9.18367 9.99976L13.8301 5.35332C14.0254 5.15805 14.0254 4.84147 13.8301 4.64621C13.6349 4.45095 13.3183 4.45095 13.123 4.64621L8.12301 9.64621C8.07942 9.6898 8.04556 9.73943 8.02144 9.79241L8.02149 4C8.02149 3.72386 7.79763 3.5 7.52149 3.5C7.24535 3.5 7.02149 3.72385 7.02149 4L7.02138 16Z" fill="black"/>
</svg>
