<svg width="21" height="20" viewBox="0 0 21 20" fill="none" xmlns="http://www.w3.org/2000/svg">
<path fill-rule="evenodd" clip-rule="evenodd" d="M5.85355 4.64645C5.65829 4.45118 5.34171 4.45118 5.14645 4.64645C4.95118 4.84171 4.95118 5.15829 5.14645 5.35355L9.79289 10L5.14645 14.6464C4.95118 14.8417 4.95118 15.1583 5.14645 15.3536C5.34171 15.5488 5.65829 15.5488 5.85355 15.3536L10.8536 10.3536C11.0488 10.1583 11.0488 9.84171 10.8536 9.64645L5.85355 4.64645ZM10.8536 4.64645C10.6583 4.45118 10.3417 4.45118 10.1464 4.64645C9.95118 4.84171 9.95118 5.15829 10.1464 5.35355L14.7929 10L10.1464 14.6464C9.95118 14.8417 9.95118 15.1583 10.1464 15.3536C10.3417 15.5488 10.6583 15.5488 10.8536 15.3536L15.8536 10.3536C16.0488 10.1583 16.0488 9.84171 15.8536 9.64645L10.8536 4.64645Z" fill="black"/>
</svg>
