<svg width="17" height="16" viewBox="0 0 17 16" fill="none" xmlns="http://www.w3.org/2000/svg">
<g id="Huge-icon">
<path id="Union" fill-rule="evenodd" clip-rule="evenodd" d="M10.0612 2.38462C9.23954 1.56299 7.83469 2.1449 7.83469 3.30685C7.83469 3.65276 7.69728 3.9845 7.45269 4.22909L6.37222 5.30955C6.12762 5.55415 5.79589 5.69156 5.44998 5.69156C4.28803 5.69156 3.70612 7.09641 4.52774 7.91803L6.11193 9.50222L2.43356 13.1806C2.24611 13.368 2.24611 13.672 2.43356 13.8594C2.62101 14.0469 2.92493 14.0469 3.11238 13.8594L6.79075 10.181L8.37492 11.7652C9.19655 12.5868 10.6014 12.0049 10.6014 10.843C10.6014 10.4971 10.7388 10.1653 10.9834 9.92073L12.0639 8.84027C12.3085 8.59567 12.6402 8.45826 12.9861 8.45826C14.1481 8.45826 14.73 7.05341 13.9083 6.23179L10.0612 2.38462Z" fill="#373A46"/>
</g>
</svg>
