<svg width="34" height="26" viewBox="0 0 34 26" fill="none" xmlns="http://www.w3.org/2000/svg">
<g clip-path="url(#clip0_1258_7359)">
<path d="M21.8174 25.818C15.1899 25.8185 9.81694 20.4464 9.81641 13.819C9.81587 7.19153 15.188 1.81853 21.8154 1.81799C28.4429 1.81746 33.8159 7.18961 33.8164 13.817C33.8164 13.8174 33.8164 13.8177 33.8164 13.818C33.8091 20.442 28.4414 25.8101 21.8174 25.818Z" fill="#D33B67" fill-opacity="0.4"/>
<path d="M12 25.818C5.37258 25.818 0 20.4454 0 13.818C0 7.19057 5.37258 1.81799 12 1.81799C18.6274 1.81799 24 7.19057 24 13.818C23.9931 20.4425 18.6245 25.8111 12 25.818Z" fill="#D33B67"/>
<path d="M11.7835 19.0521C12.4147 19.0521 12.9263 18.5405 12.9263 17.9093C12.9263 17.2781 12.4147 16.7664 11.7835 16.7664C11.1523 16.7664 10.6406 17.2781 10.6406 17.9093C10.6406 18.5405 11.1523 19.0521 11.7835 19.0521Z" fill="#FFE8EF"/>
<path d="M11.7835 15.3379C11.4804 15.3379 11.1897 15.2174 10.9754 15.0031C10.761 14.7888 10.6406 14.4981 10.6406 14.195V9.62357C10.6406 9.32047 10.761 9.02978 10.9754 8.81545C11.1897 8.60112 11.4804 8.48071 11.7835 8.48071C12.0866 8.48071 12.3773 8.60112 12.5916 8.81545C12.8059 9.02978 12.9263 9.32047 12.9263 9.62357V14.195C12.9263 14.4981 12.8059 14.7888 12.5916 15.0031C12.3773 15.2174 12.0866 15.3379 11.7835 15.3379Z" fill="#FFE8EF"/>
</g>
<defs>
<clipPath id="clip0_1258_7359">
<rect width="34" height="25" fill="white" transform="translate(0 0.909302)"/>
</clipPath>
</defs>
</svg>
