<svg width="13" height="12" viewBox="0 0 13 12" fill="none" xmlns="http://www.w3.org/2000/svg">
<path d="M7.9998 1.2002V3.0002C7.9998 3.33157 8.26843 3.6002 8.5998 3.6002H10.3998M4.6998 3.6002H5.8998M4.6998 5.4002H8.2998M4.6998 7.20019H8.2998M9.4998 2.1002C9.23276 1.86127 8.95566 1.57788 8.78072 1.39383C8.66431 1.27136 8.50348 1.2002 8.33451 1.2002H3.79966C3.13692 1.2002 2.59966 1.73745 2.59966 2.40019L2.59961 9.60016C2.59961 10.2629 3.13686 10.8002 3.7996 10.8002L9.19963 10.8002C9.86236 10.8002 10.3996 10.263 10.3996 9.60022L10.3998 3.23911C10.3998 3.08569 10.3413 2.93821 10.2348 2.82776C10.0379 2.62352 9.70909 2.28745 9.4998 2.1002Z" stroke="#555B6C" stroke-linecap="round" stroke-linejoin="round"/>
</svg>
