<svg width="12" height="10" viewBox="0 0 12 10" fill="none" xmlns="http://www.w3.org/2000/svg">
<path fill-rule="evenodd" clip-rule="evenodd" d="M5.91437 8.53147C5.65562 8.85491 5.70806 9.32688 6.0315 9.58563C6.35495 9.84439 6.82692 9.79195 7.08567 9.4685L11.0857 5.46852C11.3048 5.19461 11.3048 4.8054 11.0857 4.53149L7.08567 0.531505C6.82692 0.20806 6.35495 0.155619 6.0315 0.414375C5.70806 0.673131 5.65562 1.1451 5.91437 1.46854L9.53954 5L5.91437 8.53147ZM0.914376 8.53147C0.65562 8.85492 0.70806 9.32689 1.03151 9.58564C1.35495 9.8444 1.82692 9.79196 2.08567 9.46851L6.08565 5.46853C6.30478 5.19462 6.30478 4.80541 6.08565 4.53149L2.08567 0.531514C1.82692 0.208069 1.35495 0.155628 1.0315 0.414384C0.70806 0.673139 0.655619 1.14511 0.914375 1.46855L4.53954 5.00001L0.914376 8.53147Z" fill="black" fill-opacity="0.6"/>
</svg>
