<svg width="18" height="18" viewBox="0 0 18 18" fill="none" xmlns="http://www.w3.org/2000/svg">
<path fill-rule="evenodd" clip-rule="evenodd" d="M7.95371 1.1543C4.19755 1.1543 1.15234 4.19874 1.15234 7.95455C1.15234 11.7104 4.19755 14.7548 7.95371 14.7548C9.56033 14.7548 11.0378 14.1971 12.2013 13.2659L15.4891 16.553C15.782 16.8459 16.2569 16.8458 16.5498 16.5529C16.8426 16.26 16.8426 15.7851 16.5497 15.4923L13.2625 12.2057C14.196 11.0417 14.7551 9.56289 14.7551 7.95455C14.7551 4.19874 11.7099 1.1543 7.95371 1.1543ZM2.65234 7.95455C2.65234 5.02743 5.02572 2.6543 7.95371 2.6543C10.8817 2.6543 13.2551 5.02743 13.2551 7.95455C13.2551 9.41585 12.6646 10.7378 11.7074 11.6973L11.7074 11.6974C10.7469 12.6603 9.42041 13.2548 7.95371 13.2548C5.02572 13.2548 2.65234 10.8817 2.65234 7.95455Z" fill="#555B6C"/>
</svg>
