<svg width="16" height="16" viewBox="0 0 16 16" fill="none" xmlns="http://www.w3.org/2000/svg">
<path fill-rule="evenodd" clip-rule="evenodd" d="M8 15C11.866 15 15 11.866 15 8C15 4.13401 11.866 1 8 1C4.13401 1 1 4.13401 1 8C1 11.866 4.13401 15 8 15ZM8 6C8.41421 6 8.75 5.66421 8.75 5.25C8.75 4.83579 8.41421 4.5 8 4.5C7.58579 4.5 7.25 4.83579 7.25 5.25C7.25 5.66421 7.58579 6 8 6ZM6.5 7.5C6.5 7.77614 6.72386 8 7 8L7.5 8V11C7.5 11.2761 7.72386 11.5 8 11.5C8.27614 11.5 8.5 11.2761 8.5 11V7.5C8.5 7.22386 8.27614 7 8 7L7 7C6.72386 7 6.5 7.22386 6.5 7.5Z" fill="#373A46"/>
</svg>
