<svg width="18" height="18" viewBox="0 0 18 18" fill="none" xmlns="http://www.w3.org/2000/svg">
<g clip-path="url(#clip0_442_2037)">
<path fill-rule="evenodd" clip-rule="evenodd" d="M8.08169 0.919922C4.12528 0.919922 0.917969 4.12723 0.917969 8.08365C0.917969 12.0401 4.12527 15.2474 8.08169 15.2474C9.69862 15.2474 11.1916 14.7108 12.3903 13.8073L15.5918 17.0088C15.9824 17.3993 16.6155 17.3993 17.006 17.0088C17.3966 16.6183 17.3966 15.9851 17.006 15.5946L13.8046 12.3932C14.7086 11.1943 15.2454 9.701 15.2454 8.08365C15.2454 4.12723 12.0381 0.919922 8.08169 0.919922ZM2.91797 8.08365C2.91797 5.2318 5.22985 2.91992 8.08169 2.91992C10.9335 2.91992 13.2454 5.2318 13.2454 8.08365C13.2454 9.50743 12.6706 10.795 11.7379 11.7301L11.7379 11.7301C10.802 12.6685 9.51034 13.2474 8.08169 13.2474C5.22985 13.2474 2.91797 10.9355 2.91797 8.08365Z" fill="white"/>
</g>
<defs>
<clipPath id="clip0_442_2037">
<rect width="18" height="18" fill="white"/>
</clipPath>
</defs>
</svg>
