<svg width="30" height="29" viewBox="0 0 30 29" fill="none" xmlns="http://www.w3.org/2000/svg">
<g clip-path="url(#clip0_1257_7346)">
<path d="M28.6637 10.4091H0.664062V24.2087C0.664062 26.5283 2.54443 28.4086 4.86396 28.4086H24.4642C26.7837 28.4086 28.6641 26.5283 28.6641 24.2087L28.6637 10.4091ZM7.66423 8.8091C6.89106 8.8091 6.26426 8.18231 6.26426 7.40913V1.80927C6.26426 1.03609 6.89106 0.409302 7.66423 0.409302C8.4374 0.409302 9.0642 1.03609 9.0642 1.80927V7.40913C9.0642 8.18231 8.4374 8.8091 7.66423 8.8091ZM21.6639 8.8091C20.8907 8.8091 20.2639 8.18231 20.2639 7.40913V1.80927C20.2639 1.03609 20.8907 0.409302 21.6639 0.409302C22.4371 0.409302 23.0639 1.03609 23.0639 1.80927V7.40913C23.0639 8.18231 22.4371 8.8091 21.6639 8.8091Z" fill="#FCC296"/>
<path d="M24.4642 3.4093H23.0642V6.9093C23.0642 7.55363 22.4374 8.07597 21.6642 8.07597C20.8911 8.07597 20.2643 7.55363 20.2643 6.9093V3.4093H9.06454V6.9093C9.06454 7.55363 8.43775 8.07597 7.66458 8.07597C6.8914 8.07597 6.26461 7.55363 6.26461 6.9093V3.4093H4.86396C2.54443 3.4093 0.664062 4.97631 0.664062 6.9093V10.4093H28.6641V6.9093C28.6641 4.97631 26.7837 3.4093 24.4642 3.4093Z" fill="#EF791E"/>
<path d="M14.6624 23.5521C15.2936 23.5521 15.8052 23.0405 15.8052 22.4093C15.8052 21.7781 15.2936 21.2664 14.6624 21.2664C14.0312 21.2664 13.5195 21.7781 13.5195 22.4093C13.5195 23.0405 14.0312 23.5521 14.6624 23.5521Z" fill="#EF791E"/>
<path d="M14.6624 20.1236C14.3593 20.1236 14.0686 20.0032 13.8543 19.7888C13.6399 19.5745 13.5195 19.2838 13.5195 18.9807V14.4093C13.5195 14.1062 13.6399 13.8155 13.8543 13.6012C14.0686 13.3868 14.3593 13.2664 14.6624 13.2664C14.9655 13.2664 15.2562 13.3868 15.4705 13.6012C15.6848 13.8155 15.8052 14.1062 15.8052 14.4093V18.9807C15.8052 19.2838 15.6848 19.5745 15.4705 19.7888C15.2562 20.0032 14.9655 20.1236 14.6624 20.1236Z" fill="#EF791E"/>
</g>
<defs>
<clipPath id="clip0_1257_7346">
<rect width="29" height="28" fill="white" transform="translate(0.332031 0.409302)"/>
</clipPath>
</defs>
</svg>
