<svg width="21" height="20" viewBox="0 0 21 20" fill="none" xmlns="http://www.w3.org/2000/svg">
<path fill-rule="evenodd" clip-rule="evenodd" d="M15.1464 15.3536C15.3417 15.5488 15.6583 15.5488 15.8536 15.3536C16.0488 15.1583 16.0488 14.8417 15.8536 14.6464L11.2071 10L15.8536 5.35355C16.0488 5.15829 16.0488 4.84171 15.8536 4.64645C15.6583 4.45118 15.3417 4.45118 15.1464 4.64645L10.1464 9.64645C9.95118 9.84171 9.95118 10.1583 10.1464 10.3536L15.1464 15.3536ZM10.1464 15.3536C10.3417 15.5488 10.6583 15.5488 10.8536 15.3536C11.0488 15.1583 11.0488 14.8417 10.8536 14.6464L6.20711 10L10.8536 5.35355C11.0488 5.15829 11.0488 4.84171 10.8536 4.64645C10.6583 4.45118 10.3417 4.45118 10.1464 4.64645L5.14645 9.64645C4.95118 9.84171 4.95118 10.1583 5.14645 10.3536L10.1464 15.3536Z" fill="black"/>
</svg>
