<svg width="20" height="20" viewBox="0 0 20 20" fill="none" xmlns="http://www.w3.org/2000/svg">
<path fill-rule="evenodd" clip-rule="evenodd" d="M10 18.75C14.8325 18.75 18.75 14.8325 18.75 10C18.75 5.16751 14.8325 1.25 10 1.25C5.16751 1.25 1.25 5.16751 1.25 10C1.25 14.8325 5.16751 18.75 10 18.75ZM10 7.5C10.5178 7.5 10.9375 7.08027 10.9375 6.5625C10.9375 6.04473 10.5178 5.625 10 5.625C9.48223 5.625 9.0625 6.04473 9.0625 6.5625C9.0625 7.08027 9.48223 7.5 10 7.5ZM8.125 9.375C8.125 9.72018 8.40482 10 8.75 10L9.375 10V13.75C9.375 14.0952 9.65482 14.375 10 14.375C10.3452 14.375 10.625 14.0952 10.625 13.75V9.375C10.625 9.02982 10.3452 8.75 10 8.75L8.75 8.75C8.40482 8.75 8.125 9.02982 8.125 9.375Z" fill="#334680"/>
</svg>
